<?xml version="1.0" encoding="utf-8"?>
<!-- Generator: Adobe Illustrator 27.5.0, SVG Export Plug-In . SVG Version: 6.00 Build 0)  -->
<svg version="1.1" id="BASE" xmlns="http://www.w3.org/2000/svg" xmlns:xlink="http://www.w3.org/1999/xlink" x="0px" y="0px"
	 viewBox="0 0 2279 1975" style="enable-background:new 0 0 2279 1975;" xml:space="preserve">
<g>
	<path style="fill:#BDBDBD;" d="M2126.547,1465.905l-60.723-1083.89c-0.987-17.821-5.537-34.87-12.893-50.035
		c-11.042-22.793-28.173-41.301-48.656-54.12c-20.484-12.818-44.562-20.112-69.802-20.119c-17.866-0.02-36.3,3.732-53.677,11.523
		l-0.035,0.015l0.03-0.012l-298.506,133.39c-2.868,1.28-5.922,1.917-9.015,1.92c-3.186-0.003-6.373-0.688-9.36-2.08l-548.16-255.595
		c-17.632-8.225-36.645-12.333-55.597-12.328c-21.831-0.004-43.681,5.44-63.365,16.266l0.017-0.01L260.533,500.403
		c-21.162,11.621-38.285,28.606-50.012,48.539c-2.214,3.757-4.24,7.624-6.069,11.584l-38.457,79.682l-0.072,0.145l-0.255,0.53
		l0.009,0.005c-8.902,17.93-13.76,37.899-13.76,58.512c0,5.275,0.298,10.598,0.995,15.922l119.072,977.552
		c2.041,16.92,7.315,32.941,15.026,47.123c11.645,21.295,28.661,38.412,48.564,50.205c7.713,4.577,15.874,8.361,24.383,11.247
		c13.535,4.626,27.964,7.114,42.692,7.165c19.057,0,38.712-4.279,56.974-13.088h0.05l489.821-235.953
		c1.344-0.646,2.688-1.144,4.081-1.443c1.791-0.496,3.682-0.746,5.522-0.746c3.284,0,6.469,0.697,9.504,2.14l562.071,267.949
		c17.366,8.258,36.076,12.539,54.833,12.787h1.791c17.018,0,34.086-3.334,50.157-9.952h0.05l367.516-151.763
		c24.63-10.151,45.081-27.367,59.212-48.563c4.13-6.171,7.662-12.79,10.747-19.655v0.099l33.968-71.078
		c11.431-19.67,17.807-42.41,17.806-66.066C2126.754,1470.826,2126.686,1468.372,2126.547,1465.905z"/>
	<path style="fill:#999A9A;" d="M2045.401,1594.861l-367.508,151.742l-0.033,0.015c-16.071,6.623-33.136,9.939-50.176,9.937
		c-4.811,0-9.621-0.263-14.411-0.79c-14.481-1.595-28.759-5.6-42.197-12.006l-562.075-267.92l-0.027-0.012
		c-2.806-1.339-5.803-2.045-8.862-2.134c-0.206-0.005-0.414-0.009-0.623-0.009c-3.273,0.003-6.53,0.727-9.58,2.194L500.07,1711.814
		l-0.025,0.012c-18.298,8.822-37.945,13.101-57.021,13.078c-19.326-0.006-38.02-4.278-54.975-12.079
		c-4.128-1.899-8.153-4.005-12.058-6.312c-19.939-11.788-36.958-28.907-48.568-50.206c-7.735-14.172-12.987-30.185-15.037-47.109
		L193.287,631.619l0.004,0.024c-0.654-5.35-0.974-10.685-0.972-15.96c0-19.32,4.255-38.108,12.133-55.157l-38.457,79.682
		l-0.072,0.145l-0.255,0.53l0.009,0.005c-8.902,17.93-13.76,37.899-13.76,58.512c0,5.275,0.298,10.598,0.995,15.922l119.072,977.552
		c2.041,16.92,7.315,32.941,15.026,47.123c11.645,21.295,28.661,38.412,48.564,50.205c7.713,4.577,15.874,8.361,24.383,11.247
		c13.535,4.626,27.964,7.114,42.692,7.165c19.057,0,38.712-4.279,56.974-13.088h0.05l489.821-235.953
		c1.344-0.646,2.688-1.144,4.081-1.443c1.791-0.496,3.682-0.746,5.522-0.746c3.284,0,6.469,0.697,9.504,2.14l562.071,267.949
		c17.366,8.258,36.076,12.539,54.833,12.787h1.791c17.018,0,34.086-3.334,50.157-9.952h0.05l367.516-151.763
		c24.63-10.151,45.081-27.367,59.212-48.563c4.13-6.171,7.662-12.79,10.747-19.655v0.099l33.968-71.078
		c-1.372,2.361-2.817,4.679-4.332,6.948C2090.498,1567.478,2070.069,1584.687,2045.401,1594.861z"/>
	<path style="fill:#FEE3BE;" d="M2071.896,1472.993l-3.538-63.169l-55.661-993.803l-1.507-26.915
		c-3.034-53.738-58.913-87.823-108.075-65.879l-298.5,133.403c-0.696,0.299-1.394,0.595-2.089,0.894
		c-13.833,5.722-28.91,7.216-43.34,4.429c-6.319-1.093-12.49-3.085-18.362-5.821l-548.187-255.61
		c-2.986-1.392-6.021-2.587-9.156-3.581c-15.226-4.828-31.546-4.828-46.673,0.048c-4.676,1.443-9.256,3.434-13.633,5.822
		l-35.305,19.396L286.913,552.363c-27.516,15.127-43.089,45.48-39.309,76.628l119.122,977.604
		c3.063,25.122,17.562,45.215,37.057,56.769c21.047,12.475,47.919,14.997,72.511,3.141l489.871-235.955
		c13.038-6.319,27.466-8.707,41.548-7.165c6.047,0.636,12.042,2.03,17.846,4.138c2.363,0.859,4.695,1.832,6.984,2.927l11.245,5.375
		l550.825,262.524c2.886,1.392,5.872,2.587,8.907,3.533c8.573,2.858,17.54,4.165,26.484,3.902
		c7.251-0.213,14.488-1.457,21.483-3.751c1.841-0.549,3.682-1.244,5.522-1.992l367.516-151.763
		C2054.729,1535.789,2073.738,1505.586,2071.896,1472.993z"/>
	<path style="fill:#71B62B;" d="M1418.84,468.478l-3.31-23.446L998.285,266.899c-3.051-1.303-6.154-2.425-9.361-3.363
		l11.675,251.646L1418.84,468.478z"/>
	<polygon style="fill:#71B62B;" points="1462.729,1145.51 1597.043,1130.51 1587.51,832.35 1564.911,834.875 1574.669,903.999 
		1369.351,1155.936 1369.846,1155.882 	"/>
	<path style="fill:#71B62B;" d="M1517.499,1533.484l11.374,80.558l75.687,33.017c2.949,1.302,6.001,2.424,9.106,3.316
		l-4.065-127.175L1517.499,1533.484z"/>
	<polygon style="fill:#F6A122;" points="1603.209,1323.387 1601.404,1266.89 1599.736,1214.72 1474.474,1228.705 1481.75,1280.251 
		1388.867,1290.623 1038.39,1329.76 1040.537,1376.028 1041.007,1386.166 1048.836,1385.292 1396.747,1346.441 1489.63,1336.069 
		1505.753,1450.285 1606.907,1438.99 	"/>
	<polygon style="fill:#71B62B;" points="1505.753,1450.285 1606.907,1438.99 1603.209,1323.387 1489.63,1336.069 	"/>
	<polygon style="fill:#71B62B;" points="1599.736,1214.72 1474.474,1228.705 1481.75,1280.251 1601.404,1266.89 	"/>
	<polygon style="fill:#FED062;" points="1580.96,627.474 1579.152,570.977 1578.009,535.213 1523.469,541.304 1528.456,576.639 
		1505.234,579.232 1455.048,636.259 1444.256,648.519 1430.585,551.675 1004.5,599.256 1021.822,972.64 1032.836,1050.66 
		1025.479,1051.481 1028.096,1107.889 1040.715,1106.478 1052.689,1191.297 1241.736,1170.187 1477.124,881.35 1466.156,803.647 
		1454.858,723.619 1465.603,711.032 1532.281,632.91 1536.336,632.458 1553.166,751.677 1584.818,748.143 	"/>
	<polygon style="fill:#71B62B;" points="1579.152,570.977 1528.456,576.639 1505.234,579.232 1455.048,636.259 1444.256,648.519 
		1430.585,551.675 1004.5,599.256 1021.822,972.64 1032.836,1050.66 1025.479,1051.481 1028.096,1107.889 1040.715,1106.478 
		1052.689,1191.297 1241.736,1170.187 1477.124,881.35 1466.156,803.647 1454.858,723.619 1465.603,711.032 1532.281,632.91 
		1536.336,632.458 1580.96,627.474 	"/>
	<path style="fill:#DEC7A7;" d="M1000.898,1340.453c-1.099-17.632-2.213-35.536-3.339-53.688
		c-3.499-56.377-7.123-115.068-10.796-175.01c-1.182-19.267-2.368-38.661-3.556-58.147
		c-11.05-181.121-22.337-370.208-31.882-538.431l0.001,0.005l-15.179-280.044c-4.509,1.368-8.922,3.256-13.143,5.52l-4.069,2.198
		l-82.73,44.714l-115.906,62.642l-55.507,30L460.228,490.77l-82.733,44.713l-67.854,36.673c-7.48,4.046-14.007,9.272-19.495,15.307
		c-13.975,15.366-21.017,36.154-18.4,57.363l3.951,31.901l26.925,217.368l10.647,85.965l19.702,159.062l7.144,57.675l17.115,138.175
		l10.985,88.688l7.144,57.675l8.906,71.897l2.317,18.705c2.66,21.473,14.281,39.058,30.31,50.336
		c7.744,5.451,16.517,9.429,25.806,11.66c15.849,3.809,33.196,2.555,49.509-5.182l25.534-12.099l296.012-140.263l55.98-26.525
		l94.715-44.879c1.221-0.583,2.466-1.099,3.712-1.613c11.567-4.756,24.085-6.503,36.341-5.183
		c-0.743-11.88-1.494-23.924-2.254-36.109C1001.798,1354.918,1001.349,1347.708,1000.898,1340.453z"/>
	<path style="fill:#DEC7A7;" d="M2031.123,1440.014l-0.393-7.413l-2.776-52.495l-6.17-116.604l-3.016-56.982l-2.19-41.389
		l-27.011-510.491l-3.016-56.983l-1.907-36.073l-3.016-56.985l-3.777-71.392c-1.998-37.441-30.086-64.611-62.206-67.251
		c-10.704-0.879-21.855,0.964-32.637,6.057l-74.278,35.137l-51.377,24.303l-51.182,24.212l-85.117,40.264
		c-0.611,0.277-1.222,0.552-1.833,0.83c0.214,7.477,0.437,15.058,0.662,22.686c0.351,11.889,0.713,23.957,1.086,36.188
		c0.57,18.691,1.164,37.755,1.783,57.159c1.257,39.463,2.609,80.293,4.034,122.051c0.955,28.013,1.942,56.434,2.955,85.152
		c3.492,98.885,7.293,201.151,11.137,301.41c1.095,28.574,2.194,56.983,3.291,85.106c0.689,17.7,1.379,35.28,2.064,52.723
		c0.756,19.222,1.509,38.264,2.257,57.091c1.591,40.056,3.158,79.136,4.681,116.811c1.183,29.264,2.341,57.684,3.46,85.082
		c1.981,48.398,3.849,93.6,5.556,134.546c1.616-0.51,3.232-1.156,4.847-1.85l10.997-4.807l251.594-109.969l59.928-26.195
		c18.741-8.203,32.532-24.648,38.454-44.275C2030.46,1457.543,2031.597,1448.88,2031.123,1440.014z"/>
	<path style="fill:#5D9731;" d="M377.495,535.484l-67.854,36.673c-7.48,4.046-14.007,9.272-19.495,15.307l92.754-12.198
		L377.495,535.484z"/>
	<path style="fill:#5D9731;" d="M869.731,1449.863l94.715-44.879c1.221-0.583,2.466-1.099,3.712-1.613l-102.907,13.534
		L869.731,1449.863z"/>
	<path style="fill:#5D9731;" d="M492.205,1628.751l25.534-12.099l-75.043,17.281
		C458.546,1637.741,475.893,1636.488,492.205,1628.751z"/>
	<path style="fill:#5D9731;" d="M850.2,1306.144l0.078,0.58l7.148,52.596l100.838-13.262l42.633-5.607
		c-1.099-17.632-2.213-35.536-3.339-53.688l-25.123,3.303L850.2,1306.144z"/>
	<path style="fill:#5D9731;" d="M729.555,1473.692c7.748-1.744,15.513-3.124,23.271-4.143c20.22-2.661,40.293-2.859,59.883-0.849
		l-5.992-44.096l-340.537,44.785l-90.82,11.945l8.906,71.897l59.143-13.623L729.555,1473.692z"/>
	<polygon style="fill:#9E9D9D;" points="732.87,881.193 697.545,621.25 438.187,655.358 275.697,676.727 302.622,894.094 
		466.56,872.535 467.679,872.387 468.066,875.235 489.255,913.232 595.93,1104.539 760.284,1082.924 	"/>
	<polygon style="fill:#5D9731;" points="467.679,872.387 438.187,655.358 275.697,676.727 302.622,894.094 466.56,872.535 	"/>
	<polygon style="fill:#9E9D9D;" points="878.317,597.476 756.083,613.552 791.408,873.495 818.82,1075.225 941.054,1059.15 
		913.642,857.422 	"/>
	<polygon style="fill:#9E9D9D;" points="685.883,535.417 664.791,380.212 460.228,490.77 470.15,563.79 	"/>
	<polygon style="fill:#9E9D9D;" points="866.654,511.646 836.204,287.57 720.298,350.212 744.419,527.719 	"/>
	<polygon style="fill:#DEB657;" points="418.569,966.211 313.27,980.059 332.971,1139.121 503.018,1116.757 	"/>
	<polygon style="fill:#DEB657;" points="791.664,1313.842 625.808,1335.655 618.684,1322.956 606.998,1302.123 533.64,1171.346 
		340.115,1196.795 357.23,1334.971 368.215,1423.658 486.471,1408.106 798.89,1367.018 	"/>
	<polygon style="fill:#5D9731;" points="798.89,1367.018 791.664,1313.842 625.808,1335.655 618.684,1322.956 606.998,1302.123 
		357.23,1334.971 368.215,1423.658 486.471,1408.106 	"/>
	<polygon style="fill:#9E9D9D;" points="948.881,1116.736 826.646,1132.813 838.537,1220.313 960.771,1204.24 	"/>
	<polygon style="fill:#9E9D9D;" points="672.654,1242.131 780,1228.014 768.11,1140.51 626.381,1159.149 	"/>
	<polygon style="fill:#D68D1E;" points="697.545,621.25 732.87,881.193 760.284,1082.924 818.82,1075.225 791.408,873.495 
		756.083,613.552 744.419,527.719 720.298,350.212 664.791,380.212 685.883,535.417 	"/>
	<path style="fill:#D68D1E;" d="M1000.898,1340.453l-42.633,5.607l-100.838,13.262l-7.148-52.596l-0.078-0.58l-4.807-35.373
		l-6.856-50.458l-11.892-87.501l-58.536,7.698l11.89,87.503l6.857,50.456l1.926,14.171l2.881,21.202l7.226,53.176l-312.419,41.087
		l-118.256,15.552l7.144,57.675l90.82-11.945l340.537-44.785l5.992,44.096l1.044,7.689l55.98-26.525l-4.48-32.958l102.907-13.534
		c11.567-4.756,24.085-6.503,36.341-5.183c-0.743-11.88-1.494-23.924-2.254-36.109
		C1001.798,1354.918,1001.349,1347.708,1000.898,1340.453z"/>
	<path style="fill:#007FB3;" d="M626.381,1159.149l141.729-18.638l58.536-7.698l122.235-16.076l37.881-4.982
		c-1.182-19.267-2.368-38.661-3.556-58.147l-42.152,5.542l-122.234,16.076l-58.536,7.699l-164.354,21.615l-92.912,12.219
		l-170.047,22.363l7.144,57.675l193.525-25.449L626.381,1159.149z"/>
	<path style="fill:#5D9731;" d="M1785.817,797.91l-156.076,22.086c3.492,98.885,7.293,201.151,11.137,301.41l182.533-25.829
		L1785.817,797.91z"/>
	<path style="fill:#9E9D9D;" d="M1960.269,1475.255l-37.659,5.33l-265.979,37.634c1.981,48.398,3.849,93.6,5.556,134.546
		c1.616-0.51,3.232-1.156,4.847-1.85l10.997-4.807l251.594-109.969l59.928-26.195c18.741-8.203,32.532-24.648,38.454-44.275
		L1960.269,1475.255z"/>
	<path style="fill:#5D9731;" d="M1922.61,1480.584l-265.979,37.634c1.981,48.398,3.849,93.6,5.556,134.546
		c1.616-0.51,3.232-1.156,4.847-1.85l10.997-4.807l251.594-109.969l-4.966-39.327L1922.61,1480.584z"/>
	<path style="fill:#9E9D9D;" d="M1915.644,365.956c-10.704-0.879-21.855,0.964-32.637,6.057l-74.278,35.137l110.15-15.586
		L1915.644,365.956z"/>
	<path style="fill:#9E9D9D;" d="M2018.769,1206.521l-2.19-41.389l-1.404-11.119l-131.46,18.6l-239.546,33.898
		c0.689,17.7,1.379,35.28,2.064,52.723l244.06-34.536L2018.769,1206.521z"/>
	<path style="fill:#9E9D9D;" d="M2021.784,1263.503l-124.369,17.599l-248.925,35.225c1.591,40.056,3.158,79.136,4.681,116.811
		l258.821-36.624l115.963-16.407L2021.784,1263.503z"/>
	<path style="fill:#5D9731;" d="M1897.415,1281.101l-248.925,35.225c1.591,40.056,3.158,79.136,4.681,116.811l258.821-36.624
		L1897.415,1281.101z"/>
	<path style="fill:#5D9731;" d="M1883.714,1172.613l-239.546,33.898c0.689,17.7,1.379,35.28,2.064,52.723l244.06-34.536
		L1883.714,1172.613z"/>
	<polygon style="fill:#9E9D9D;" points="2004.557,1069.944 1999.725,1031.693 1989.108,947.624 1966.961,772.28 1865.241,786.671 
		1902.837,1084.338 	"/>
	<path style="fill:#DEB657;" d="M1770.365,534.494l163.641-23.155l-4.51-35.705l-163.64,23.155l-8.504-67.335l-51.182,24.212
		l6.399,50.663l-92.687,13.116c0.351,11.889,0.713,23.957,1.086,36.188l96.111-13.599L1770.365,534.494z"/>
	<path style="fill:#DEB657;" d="M1989.567,654.641l-3.016-56.983l-1.201,0.169l-39.711,5.62l-4.509-35.705l-163.641,23.155
		l-53.286,7.54l-101.452,14.356c1.257,39.463,2.609,80.293,4.034,122.051l148.414-21.003l79.424-11.238l101.72-14.394l-3.581-28.359
		L1989.567,654.641z"/>
	<polygon style="fill:#9E9D9D;" points="1765.856,498.789 1770.365,534.494 1934.006,511.338 1929.496,475.633 	"/>
	<polygon style="fill:#9E9D9D;" points="1945.639,603.447 1941.13,567.742 1777.489,590.896 1781.998,626.602 	"/>
	<polygon style="fill:#D68D1E;" points="1717.079,542.034 1770.365,534.494 1765.856,498.789 1757.352,431.454 1706.17,455.665 
		1712.569,506.329 	"/>
	<polygon style="fill:#D68D1E;" points="1945.639,603.447 1781.998,626.602 1777.489,590.896 1724.203,598.437 1728.712,634.142 
		1735.535,688.163 1735.836,690.545 1952.763,659.849 1989.567,654.641 1986.551,597.658 1985.35,597.827 	"/>
	<path style="fill:#D68D1E;" d="M2021.784,1263.503l-3.016-56.982l-128.477,18.178l-244.06,34.536
		c0.756,19.222,1.509,38.264,2.257,57.091l248.925-35.225L2021.784,1263.503z"/>
	<path style="fill:#007FB3;" d="M1777.489,590.896l163.641-23.155l39.711-5.62l3.802-0.537l-3.016-56.985l-7.91,1.12l-39.712,5.619
		l-163.641,23.155l-53.286,7.54l-96.111,13.599c0.57,18.691,1.164,37.755,1.783,57.159l101.452-14.356L1777.489,590.896z"/>
	<path style="fill:#5D9731;" d="M951.324,515.177l0.001,0.005l-15.179-280.044c-4.509,1.368-8.922,3.256-13.143,5.52l-4.069,2.198
		l-20.333,10.99L951.324,515.177z"/>
</g>
</svg>
